<svg width="30" height="30" viewBox="0 0 30 30" fill="none" xmlns="http://www.w3.org/2000/svg">
<path d="M9.04988 2.50078H6.67488C3.93738 2.50078 2.49988 3.93828 2.49988 6.66328V9.03828C2.49988 11.7633 3.93738 13.2008 6.66238 13.2008H9.03738C11.7624 13.2008 13.1999 11.7633 13.1999 9.03828V6.66328C13.2124 3.93828 11.7749 2.50078 9.04988 2.50078Z" fill="white"/>
<path fill-rule="evenodd" clip-rule="evenodd" d="M9.99988 6.65594L9.99991 6.6486C10.0023 6.13414 9.92062 5.90252 9.88195 5.8241C9.80369 5.7849 9.57049 5.70078 9.04988 5.70078H6.67488C6.13739 5.70078 5.90115 5.78918 5.82475 5.82858C5.78581 5.90463 5.69988 6.13708 5.69988 6.66328V9.03828C5.69988 9.56625 5.78643 9.79926 5.82543 9.87523C5.9014 9.91423 6.1344 10.0008 6.66238 10.0008H9.03738C9.56536 10.0008 9.79836 9.91423 9.87433 9.87523C9.91333 9.79926 9.99988 9.56625 9.99988 9.03828V6.65594ZM9.85568 9.90513C9.85539 9.90483 9.85806 9.90044 9.86455 9.89285C9.85921 9.90163 9.85597 9.90543 9.85568 9.90513ZM9.89195 9.86545C9.89954 9.85896 9.90393 9.85629 9.90423 9.85658C9.90452 9.85687 9.90073 9.86011 9.89195 9.86545ZM5.79553 9.85658C5.79583 9.85629 5.80021 9.85896 5.80781 9.86545C5.79903 9.86011 5.79523 9.85687 5.79553 9.85658ZM5.83521 9.89285C5.8417 9.90044 5.84436 9.90483 5.84408 9.90513C5.84379 9.90542 5.84054 9.90163 5.83521 9.89285ZM5.8435 5.79848C5.8438 5.79879 5.84108 5.80328 5.83445 5.81103C5.83989 5.80205 5.84321 5.79817 5.8435 5.79848ZM5.80698 5.83848C5.79959 5.84479 5.79533 5.84739 5.79505 5.84712C5.79476 5.84684 5.79846 5.84369 5.80698 5.83848ZM9.91417 5.84375C9.91388 5.84404 9.9095 5.8414 9.90192 5.83499C9.91067 5.84026 9.91446 5.84347 9.91417 5.84375ZM9.87133 5.8043C9.86462 5.79632 9.86188 5.7917 9.86219 5.79139C9.8625 5.79107 9.86586 5.79506 9.87133 5.8043ZM6.67488 2.50078H9.04988C11.7749 2.50078 13.2124 3.93828 13.1999 6.66328V9.03828C13.1999 11.7633 11.7624 13.2008 9.03738 13.2008H6.66238C3.93738 13.2008 2.49988 11.7633 2.49988 9.03828V6.66328C2.49988 3.93828 3.93738 2.50078 6.67488 2.50078Z" fill="#A3AED0"/>
<path d="M23.3374 2.50078H20.9624C18.2374 2.50078 16.7999 3.93828 16.7999 6.66328V9.03828C16.7999 11.7633 18.2374 13.2008 20.9624 13.2008H23.3374C26.0624 13.2008 27.4999 11.7633 27.4999 9.03828V6.66328C27.4999 3.93828 26.0624 2.50078 23.3374 2.50078Z" fill="white"/>
<path fill-rule="evenodd" clip-rule="evenodd" d="M23.3374 5.70078H20.9624C20.4345 5.70078 20.2014 5.78733 20.1255 5.82633C20.0865 5.9023 19.9999 6.1353 19.9999 6.66328V9.03828C19.9999 9.56626 20.0865 9.79926 20.1255 9.87523C20.2014 9.91423 20.4345 10.0008 20.9624 10.0008H23.3374C23.8654 10.0008 24.0984 9.91423 24.1744 9.87523C24.2134 9.79926 24.2999 9.56626 24.2999 9.03828V6.66328C24.2999 6.1353 24.2134 5.9023 24.1744 5.82633C24.0984 5.78733 23.8654 5.70078 23.3374 5.70078ZM24.2043 5.84498C24.204 5.84526 24.1996 5.8426 24.192 5.83611C24.2008 5.84144 24.2046 5.84469 24.2043 5.84498ZM24.1646 5.80871C24.1581 5.80112 24.1554 5.79673 24.1557 5.79643C24.156 5.79613 24.1593 5.79993 24.1646 5.80871ZM24.1557 9.90513C24.1554 9.90483 24.1581 9.90044 24.1646 9.89285C24.1593 9.90163 24.156 9.90542 24.1557 9.90513ZM24.192 9.86545C24.1996 9.85896 24.204 9.85629 24.2043 9.85658C24.2046 9.85687 24.2008 9.86011 24.192 9.86545ZM20.0956 9.85658C20.0959 9.85629 20.1003 9.85896 20.1079 9.86545C20.0991 9.86011 20.0953 9.85687 20.0956 9.85658ZM20.1353 9.89285C20.1417 9.90044 20.1444 9.90483 20.1441 9.90513C20.1438 9.90542 20.1406 9.90163 20.1353 9.89285ZM20.1441 5.79643C20.1444 5.79673 20.1417 5.80112 20.1353 5.80871C20.1406 5.79993 20.1438 5.79613 20.1441 5.79643ZM20.1079 5.83611C20.1003 5.8426 20.0959 5.84527 20.0956 5.84498C20.0953 5.84469 20.0991 5.84144 20.1079 5.83611ZM20.9624 2.50078H23.3374C26.0624 2.50078 27.4999 3.93828 27.4999 6.66328V9.03828C27.4999 11.7633 26.0624 13.2008 23.3374 13.2008H20.9624C18.2374 13.2008 16.7999 11.7633 16.7999 9.03828V6.66328C16.7999 3.93828 18.2374 2.50078 20.9624 2.50078Z" fill="#A3AED0"/>
<path d="M23.3374 16.7871H20.9624C18.2374 16.7871 16.7999 18.2246 16.7999 20.9496V23.3246C16.7999 26.0496 18.2374 27.4871 20.9624 27.4871H23.3374C26.0624 27.4871 27.4999 26.0496 27.4999 23.3246V20.9496C27.4999 18.2246 26.0624 16.7871 23.3374 16.7871Z" fill="white"/>
<path fill-rule="evenodd" clip-rule="evenodd" d="M23.3374 19.9871H20.9624C20.4344 19.9871 20.2014 20.0737 20.1255 20.1127C20.0865 20.1886 19.9999 20.4216 19.9999 20.9496V23.3246C19.9999 23.8526 20.0865 24.0856 20.1255 24.1616C20.2014 24.2006 20.4345 24.2871 20.9624 24.2871H23.3374C23.8654 24.2871 24.0984 24.2006 24.1744 24.1616C24.2134 24.0856 24.2999 23.8526 24.2999 23.3246V20.9496C24.2999 20.4216 24.2134 20.1886 24.1744 20.1127C24.0984 20.0737 23.8654 19.9871 23.3374 19.9871ZM24.2043 20.1313C24.204 20.1316 24.1996 20.1289 24.192 20.1224C24.2008 20.1278 24.2046 20.131 24.2043 20.1313ZM24.1646 20.095C24.1581 20.0874 24.1554 20.0831 24.1557 20.0828C24.156 20.0825 24.1593 20.0863 24.1646 20.095ZM24.1557 24.1915C24.1554 24.1912 24.1581 24.1868 24.1646 24.1792C24.1593 24.188 24.156 24.1918 24.1557 24.1915ZM24.192 24.1518C24.1996 24.1453 24.204 24.1426 24.2043 24.1429C24.2046 24.1432 24.2008 24.1464 24.192 24.1518ZM20.0956 24.1429C20.0959 24.1426 20.1003 24.1453 20.1079 24.1518C20.0991 24.1464 20.0953 24.1432 20.0956 24.1429ZM20.1353 24.1792C20.1417 24.1868 20.1444 24.1912 20.1441 24.1915C20.1438 24.1918 20.1406 24.188 20.1353 24.1792ZM20.1441 20.0828C20.1444 20.0831 20.1417 20.0874 20.1353 20.095C20.1406 20.0863 20.1438 20.0825 20.1441 20.0828ZM20.1079 20.1224C20.1003 20.1289 20.0959 20.1316 20.0956 20.1313C20.0953 20.131 20.0991 20.1278 20.1079 20.1224ZM20.9624 16.7871H23.3374C26.0624 16.7871 27.4999 18.2246 27.4999 20.9496V23.3246C27.4999 26.0496 26.0624 27.4871 23.3374 27.4871H20.9624C18.2374 27.4871 16.7999 26.0496 16.7999 23.3246V20.9496C16.7999 18.2246 18.2374 16.7871 20.9624 16.7871Z" fill="#A3AED0"/>
<path d="M9.04988 16.7871H6.67488C3.93738 16.7871 2.49988 18.2246 2.49988 20.9496V23.3246C2.49988 26.0621 3.93738 27.4996 6.66238 27.4996H9.03738C11.7624 27.4996 13.1999 26.0621 13.1999 23.3371V20.9621C13.2124 18.2246 11.7749 16.7871 9.04988 16.7871Z" fill="white"/>
<path fill-rule="evenodd" clip-rule="evenodd" d="M9.99988 20.9548L9.99991 20.9475C10.0023 20.4236 9.91883 20.1887 9.87974 20.1098C9.80144 20.0707 9.56879 19.9871 9.04988 19.9871H6.67488C6.13738 19.9871 5.90115 20.0755 5.82475 20.1149C5.78581 20.191 5.69988 20.4234 5.69988 20.9496V23.3246C5.69988 23.8621 5.78828 24.0983 5.82768 24.1747C5.90373 24.2137 6.13618 24.2996 6.66238 24.2996H9.03738C9.56535 24.2996 9.79836 24.2131 9.87433 24.1741C9.91333 24.0981 9.99988 23.8651 9.99988 23.3371V20.9548ZM9.85568 24.204C9.85539 24.2037 9.85806 24.1993 9.86455 24.1917C9.85921 24.2005 9.85597 24.2043 9.85568 24.204ZM9.89195 24.1643C9.89954 24.1578 9.90393 24.1551 9.90423 24.1554C9.90452 24.1557 9.90073 24.1589 9.89195 24.1643ZM5.79758 24.156C5.79789 24.1557 5.80238 24.1584 5.81013 24.165C5.80115 24.1596 5.79727 24.1563 5.79758 24.156ZM5.83758 24.1925C5.84389 24.1999 5.84649 24.2042 5.84622 24.2044C5.84594 24.2047 5.84279 24.201 5.83758 24.1925ZM5.8435 20.0848C5.8438 20.0851 5.84108 20.0896 5.83445 20.0974C5.83989 20.0884 5.84321 20.0845 5.8435 20.0848ZM5.80698 20.1248C5.79959 20.1311 5.79533 20.1337 5.79505 20.1335C5.79476 20.1332 5.79846 20.13 5.80698 20.1248ZM9.91213 20.1295C9.91183 20.1298 9.90735 20.1271 9.89961 20.1206C9.90856 20.1259 9.91243 20.1292 9.91213 20.1295ZM9.86899 20.0898C9.86246 20.0821 9.85979 20.0776 9.86008 20.0773C9.86038 20.077 9.86364 20.0809 9.86899 20.0898ZM6.67488 16.7871H9.04988C11.7749 16.7871 13.2124 18.2246 13.1999 20.9621V23.3371C13.1999 26.0621 11.7624 27.4996 9.03738 27.4996H6.66238C3.93738 27.4996 2.49988 26.0621 2.49988 23.3246V20.9496C2.49988 18.2246 3.93738 16.7871 6.67488 16.7871Z" fill="#A3AED0"/>
</svg>
